# Blender v2.79 (sub 0) OBJ File: 'tree.blend'
# www.blender.org
mtllib birds.mtl
o Plane
v -0.120966 0.216003 0.076156
v 0.095326 0.216003 0.054286
v -0.120966 0.433398 0.076156
v 0.095326 0.433398 0.054286
v -0.121013 0.216003 0.075698
v 0.095280 0.216003 0.053828
v -0.121013 0.433398 0.075698
v 0.095280 0.433398 0.053828
vt 0.000100 0.000100
vt 0.999900 0.000100
vt 0.999900 0.999900
vt 0.000100 0.999900
vt 0.000100 0.000100
vt 0.000100 0.999900
vt 0.999900 0.999900
vt 0.999900 0.000100
vn 0.1006 -0.0000 0.9949
vn -0.1006 0.0000 -0.9949
usemtl Birds-New
s off
f 1/1/1 2/2/1 4/3/1 3/4/1
f 5/5/2 7/6/2 8/7/2 6/8/2
