# Blender v2.79 (sub 0) OBJ File: 'tree.blend'
# www.blender.org
mtllib birds.mtl
o Circle
v 0.009208 0.219596 -0.060702
v -0.004234 0.218238 -0.057628
v -0.017159 0.214216 -0.054673
v -0.029071 0.207684 -0.051950
v -0.039512 0.198894 -0.049562
v -0.048081 0.188184 -0.047603
v -0.054448 0.175964 -0.046147
v -0.058369 0.162705 -0.045251
v -0.059693 0.148917 -0.044948
v -0.058369 0.135128 -0.045251
v -0.054448 0.121869 -0.046147
v -0.048081 0.109649 -0.047603
v -0.039512 0.098939 -0.049562
v -0.029071 0.090149 -0.051950
v -0.017159 0.083618 -0.054673
v -0.004234 0.079596 -0.057628
v 0.009208 0.078238 -0.060702
v 0.022650 0.079596 -0.063775
v 0.035575 0.083618 -0.066731
v 0.047487 0.090149 -0.069454
v 0.057928 0.098939 -0.071842
v 0.066497 0.109649 -0.073801
v 0.072864 0.121869 -0.075257
v 0.076785 0.135128 -0.076153
v 0.078109 0.148917 -0.076456
v 0.076785 0.162705 -0.076153
v 0.072864 0.175964 -0.075257
v 0.066497 0.188184 -0.073801
v 0.057928 0.198894 -0.071842
v 0.047487 0.207684 -0.069454
v 0.035575 0.214216 -0.066731
v 0.022650 0.218238 -0.063775
v 0.009208 0.219596 -0.059702
v -0.004234 0.218238 -0.056628
v -0.017159 0.214216 -0.053673
v -0.029071 0.207684 -0.050950
v -0.039512 0.198894 -0.048562
v -0.048081 0.188184 -0.046603
v -0.054448 0.175964 -0.045147
v -0.058369 0.162705 -0.044251
v -0.059693 0.148917 -0.043948
v -0.058369 0.135128 -0.044251
v -0.054448 0.121869 -0.045147
v -0.048081 0.109649 -0.046603
v -0.039512 0.098939 -0.048562
v -0.029071 0.090149 -0.050950
v -0.017159 0.083618 -0.053673
v -0.004234 0.079596 -0.056628
v 0.009208 0.078238 -0.059702
v 0.022650 0.079596 -0.062775
v 0.035575 0.083618 -0.065731
v 0.047487 0.090149 -0.068454
v 0.057928 0.098939 -0.070842
v 0.066497 0.109649 -0.072801
v 0.072864 0.121869 -0.074257
v 0.076785 0.135128 -0.075153
v 0.078109 0.148917 -0.075456
v 0.076785 0.162705 -0.075153
v 0.072864 0.175964 -0.074257
v 0.066497 0.188184 -0.072801
v 0.057928 0.198894 -0.070842
v 0.047487 0.207684 -0.068454
v 0.035575 0.214216 -0.065731
v 0.022650 0.218238 -0.062775
vt 0.354185 0.980687
vt 0.450764 0.999898
vt 0.549235 0.999898
vt 0.645815 0.980687
vt 0.736791 0.943004
vt 0.818667 0.888296
vt 0.888297 0.818666
vt 0.943005 0.736791
vt 0.980689 0.645815
vt 0.999900 0.549236
vt 0.999900 0.450765
vt 0.980689 0.354185
vt 0.943006 0.263209
vt 0.888298 0.181333
vt 0.818668 0.111703
vt 0.736792 0.056995
vt 0.645816 0.019311
vt 0.549236 0.000100
vt 0.450763 0.000100
vt 0.354183 0.019311
vt 0.263207 0.056995
vt 0.181331 0.111703
vt 0.111701 0.181334
vt 0.056994 0.263210
vt 0.019310 0.354186
vt 0.000100 0.450765
vt 0.000100 0.549236
vt 0.019312 0.645815
vt 0.056995 0.736790
vt 0.111703 0.818666
vt 0.181333 0.888295
vt 0.263209 0.943003
vt 0.354185 0.980687
vt 0.263209 0.943003
vt 0.181333 0.888295
vt 0.111703 0.818666
vt 0.056995 0.736790
vt 0.019312 0.645815
vt 0.000100 0.549236
vt 0.000100 0.450765
vt 0.019310 0.354186
vt 0.056994 0.263210
vt 0.111701 0.181334
vt 0.181331 0.111703
vt 0.263207 0.056995
vt 0.354183 0.019311
vt 0.450763 0.000100
vt 0.549236 0.000100
vt 0.645816 0.019311
vt 0.736792 0.056995
vt 0.818668 0.111703
vt 0.888298 0.181333
vt 0.943006 0.263209
vt 0.980689 0.354185
vt 0.999900 0.450765
vt 0.999900 0.549236
vt 0.980689 0.645815
vt 0.943005 0.736791
vt 0.888297 0.818666
vt 0.818667 0.888296
vt 0.736791 0.943004
vt 0.645815 0.980687
vt 0.549235 0.999898
vt 0.450764 0.999898
vn -0.2229 0.0000 -0.9748
vn 0.2229 -0.0000 0.9748
usemtl None
s off
f 2/1/1 1/2/1 32/3/1 31/4/1 30/5/1 29/6/1 28/7/1 27/8/1 26/9/1 25/10/1 24/11/1 23/12/1 22/13/1 21/14/1 20/15/1 19/16/1 18/17/1 17/18/1 16/19/1 15/20/1 14/21/1 13/22/1 12/23/1 11/24/1 10/25/1 9/26/1 8/27/1 7/28/1 6/29/1 5/30/1 4/31/1 3/32/1
f 34/33/2 35/34/2 36/35/2 37/36/2 38/37/2 39/38/2 40/39/2 41/40/2 42/41/2 43/42/2 44/43/2 45/44/2 46/45/2 47/46/2 48/47/2 49/48/2 50/49/2 51/50/2 52/51/2 53/52/2 54/53/2 55/54/2 56/55/2 57/56/2 58/57/2 59/58/2 60/59/2 61/60/2 62/61/2 63/62/2 64/63/2 33/64/2
